<svg width="32" height="32" viewBox="0 0 32 32" xmlns="http://www.w3.org/2000/svg">
  <rect width="32" height="32" rx="4" fill="#005A9E"/>
  <line x1="6" y1="4.9" x2="6" y2="12" stroke="white" stroke-width="2.2" stroke-linecap="butt"/>
  <line x1="6" y1="21" x2="6" y2="27.1" stroke="white" stroke-width="2.2" stroke-linecap="butt"/>
  <path d="M6 6H18C23.5 6 28 10.5 28 16C28 21.5 23.5 26 18 26H6" stroke="white" stroke-width="2.2" fill="none" stroke-linejoin="round"/>
  <path d="M11 10V22H16.5C19.5 22 22 19.5 22 16.5C22 13.5 19.5 11 16.5 11H11" stroke="white" stroke-width="2" fill="none" stroke-linejoin="round"/>
  <circle cx="6" cy="14.5" r="1.8" fill="white"/>
  <circle cx="11" cy="14.5" r="1.8" fill="white"/>
  <line x1="6" y1="14.5" x2="11" y2="14.5" stroke="white" stroke-width="1.5"/>
  <circle cx="6" cy="18.5" r="1.8" fill="white"/>
  <circle cx="11" cy="18.5" r="1.8" fill="white"/>
  <line x1="6" y1="18.5" x2="11" y2="18.5" stroke="white" stroke-width="1.5"/>
</svg>